<svg width="97" height="33" viewBox="0 0 97 33" fill="none" xmlns="http://www.w3.org/2000/svg">
<path d="M2.99902 8.62169L8.87399 2.99609H14.749H26.4989H49.9988H96.9985V17.9977V21.7481V25.4985V27.3737L91.1236 32.9993H85.2486H73.4987H49.9988H2.99902V17.9977V10.4969V8.62169Z" fill="black"/>
<path d="M46.9993 0.25H93.749V15.0016V18.752V22.5024V24.2709L88.0237 29.7532H82.2491H70.4991H46.9993H0.249512V15.0016V7.5008V5.73234L5.97487 0.25H11.7495H23.4994H46.9993Z" fill="white" stroke="black" stroke-width="0.5"/>
<path d="M34.635 19.998L34.173 18.5H30.099L29.637 19.998H28.251L31.569 10.198H32.703L36.021 19.998H34.635ZM30.463 17.338H33.809L32.129 11.962L30.463 17.338ZM40.8908 13.376C41.8148 13.376 42.5662 13.6934 43.1448 14.328C43.7235 14.9534 44.0128 15.77 44.0128 16.778C44.0128 17.7674 43.7142 18.5794 43.1168 19.214C42.5195 19.8487 41.7542 20.166 40.8208 20.166C40.3262 20.166 39.8688 20.0494 39.4488 19.816C39.0382 19.5827 38.7302 19.2654 38.5248 18.864V19.998H37.3068V10.198H38.5248V14.678C38.7302 14.2767 39.0428 13.9594 39.4628 13.726C39.8922 13.4927 40.3682 13.376 40.8908 13.376ZM40.6528 19.074C41.2782 19.074 41.7915 18.8594 42.1928 18.43C42.5942 18.0007 42.7948 17.45 42.7948 16.778C42.7948 16.106 42.5942 15.5554 42.1928 15.126C41.7915 14.6874 41.2782 14.468 40.6528 14.468C40.0088 14.468 39.4815 14.6827 39.0708 15.112C38.6695 15.5414 38.4688 16.0967 38.4688 16.778C38.4688 17.45 38.6695 18.0007 39.0708 18.43C39.4815 18.8594 40.0088 19.074 40.6528 19.074ZM48.4203 20.166C47.3937 20.166 46.577 19.844 45.9703 19.2C45.3637 18.5467 45.0603 17.7347 45.0603 16.764C45.0603 15.7934 45.3637 14.986 45.9703 14.342C46.577 13.698 47.3937 13.376 48.4203 13.376C49.4377 13.376 50.2497 13.7027 50.8563 14.356C51.4723 15 51.7803 15.8027 51.7803 16.764C51.7803 17.7347 51.4723 18.5467 50.8563 19.2C50.2497 19.844 49.4377 20.166 48.4203 20.166ZM46.8383 18.43C47.2303 18.8594 47.7577 19.074 48.4203 19.074C49.083 19.074 49.6057 18.8594 49.9883 18.43C50.371 17.9914 50.5623 17.436 50.5623 16.764C50.5623 16.1014 50.371 15.5554 49.9883 15.126C49.6057 14.6874 49.083 14.468 48.4203 14.468C47.7577 14.468 47.2303 14.6874 46.8383 15.126C46.4557 15.5554 46.2643 16.106 46.2643 16.778C46.2643 17.4407 46.4557 17.9914 46.8383 18.43ZM55.7376 20.166C54.991 20.166 54.3936 19.942 53.9456 19.494C53.507 19.0367 53.2876 18.3787 53.2876 17.52V13.544H54.5056V17.226C54.5056 18.486 55.0283 19.116 56.0736 19.116C56.6896 19.116 57.147 18.92 57.4456 18.528C57.7536 18.1267 57.9076 17.6414 57.9076 17.072V13.544H59.1256V19.998H57.9076V18.822C57.7303 19.2327 57.4503 19.5594 57.0676 19.802C56.6943 20.0447 56.251 20.166 55.7376 20.166ZM63.9209 18.976C64.2569 18.976 64.5276 18.9527 64.7329 18.906V19.984C64.4529 20.0494 64.0936 20.082 63.6549 20.082C63.4589 20.082 63.2863 20.0727 63.1369 20.054C62.9969 20.0354 62.8289 19.984 62.6329 19.9C62.4369 19.816 62.2736 19.6994 62.1429 19.55C62.0123 19.3914 61.9003 19.172 61.8069 18.892C61.7136 18.6027 61.6669 18.2574 61.6669 17.856V14.566H60.5049V13.544H61.6669V11.5H62.8849V13.544H64.5089V14.566H62.8849V17.59C62.8849 18.1594 62.9689 18.5327 63.1369 18.71C63.3049 18.8874 63.5663 18.976 63.9209 18.976Z" fill="black"/>
</svg>