<svg width="97" height="33" viewBox="0 0 97 33" fill="none" xmlns="http://www.w3.org/2000/svg">
<path d="M2.99902 8.6256L8.87399 3H14.749H26.4989H49.9988H96.9985V18.0016V21.752V25.5024V27.3776L91.1236 33.0032H85.2486H73.4987H49.9988H2.99902V18.0016V10.5008V8.6256Z" fill="black"/>
<path d="M46.9993 0.253906H93.749V15.0055V18.7559V22.5063V24.2748L88.0237 29.7571H82.2491H70.4991H46.9993H0.249512V15.0055V7.50471V5.73625L5.97487 0.253906H11.7495H23.4994H46.9993Z" fill="#97C93A" stroke="black" stroke-width="0.5"/>
<path d="M34.635 20.002L34.173 18.504H30.099L29.637 20.002H28.251L31.569 10.202H32.703L36.021 20.002H34.635ZM30.463 17.342H33.809L32.129 11.966L30.463 17.342ZM40.8908 13.38C41.8148 13.38 42.5662 13.6973 43.1448 14.332C43.7235 14.9573 44.0128 15.774 44.0128 16.782C44.0128 17.7713 43.7142 18.5833 43.1168 19.218C42.5195 19.8526 41.7542 20.17 40.8208 20.17C40.3262 20.17 39.8688 20.0533 39.4488 19.82C39.0382 19.5866 38.7302 19.2693 38.5248 18.868V20.002H37.3068V10.202H38.5248V14.682C38.7302 14.2806 39.0428 13.9633 39.4628 13.73C39.8922 13.4966 40.3682 13.38 40.8908 13.38ZM40.6528 19.078C41.2782 19.078 41.7915 18.8633 42.1928 18.434C42.5942 18.0046 42.7948 17.454 42.7948 16.782C42.7948 16.11 42.5942 15.5593 42.1928 15.13C41.7915 14.6913 41.2782 14.472 40.6528 14.472C40.0088 14.472 39.4815 14.6866 39.0708 15.116C38.6695 15.5453 38.4688 16.1006 38.4688 16.782C38.4688 17.454 38.6695 18.0046 39.0708 18.434C39.4815 18.8633 40.0088 19.078 40.6528 19.078ZM48.4203 20.17C47.3937 20.17 46.577 19.848 45.9703 19.204C45.3637 18.5506 45.0603 17.7386 45.0603 16.768C45.0603 15.7973 45.3637 14.99 45.9703 14.346C46.577 13.702 47.3937 13.38 48.4203 13.38C49.4377 13.38 50.2497 13.7066 50.8563 14.36C51.4723 15.004 51.7803 15.8066 51.7803 16.768C51.7803 17.7386 51.4723 18.5506 50.8563 19.204C50.2497 19.848 49.4377 20.17 48.4203 20.17ZM46.8383 18.434C47.2303 18.8633 47.7577 19.078 48.4203 19.078C49.083 19.078 49.6057 18.8633 49.9883 18.434C50.371 17.9953 50.5623 17.44 50.5623 16.768C50.5623 16.1053 50.371 15.5593 49.9883 15.13C49.6057 14.6913 49.083 14.472 48.4203 14.472C47.7577 14.472 47.2303 14.6913 46.8383 15.13C46.4557 15.5593 46.2643 16.11 46.2643 16.782C46.2643 17.4446 46.4557 17.9953 46.8383 18.434ZM55.7376 20.17C54.991 20.17 54.3936 19.946 53.9456 19.498C53.507 19.0406 53.2876 18.3826 53.2876 17.524V13.548H54.5056V17.23C54.5056 18.49 55.0283 19.12 56.0736 19.12C56.6896 19.12 57.147 18.924 57.4456 18.532C57.7536 18.1306 57.9076 17.6453 57.9076 17.076V13.548H59.1256V20.002H57.9076V18.826C57.7303 19.2366 57.4503 19.5633 57.0676 19.806C56.6943 20.0486 56.251 20.17 55.7376 20.17ZM63.9209 18.98C64.2569 18.98 64.5276 18.9566 64.7329 18.91V19.988C64.4529 20.0533 64.0936 20.086 63.6549 20.086C63.4589 20.086 63.2863 20.0766 63.1369 20.058C62.9969 20.0393 62.8289 19.988 62.6329 19.904C62.4369 19.82 62.2736 19.7033 62.1429 19.554C62.0123 19.3953 61.9003 19.176 61.8069 18.896C61.7136 18.6066 61.6669 18.2613 61.6669 17.86V14.57H60.5049V13.548H61.6669V11.504H62.8849V13.548H64.5089V14.57H62.8849V17.594C62.8849 18.1633 62.9689 18.5366 63.1369 18.714C63.3049 18.8913 63.5663 18.98 63.9209 18.98Z" fill="black"/>
</svg>