<svg width="97" height="33" viewBox="0 0 97 33" fill="none" xmlns="http://www.w3.org/2000/svg">
<path d="M3 8.62169L8.87497 2.99609H14.7499H26.4999H49.9998H96.9995V17.9977V21.7481V25.4985V27.3737L91.1245 32.9993H85.2496H73.4996H49.9998H3V17.9977V10.4969V8.62169Z" fill="black"/>
<path d="M0.25 7.5008V5.73234L5.97536 0.25H11.7499H23.4999H46.9998H93.7495V15.0016V18.752V22.5024V24.2709L88.0241 29.7532H82.2496H70.4996H46.9998H0.25V15.0016V7.5008Z" fill="white" stroke="black" stroke-width="0.5"/>
<path d="M29.924 13.588C29.924 14.3533 29.7327 15.0207 29.35 15.59C28.9673 16.1593 28.4493 16.556 27.796 16.78L29.784 20H28.328L26.438 16.962H24.394V20H23.12V10.2H26.634C27.5953 10.2 28.384 10.5173 29 11.152C29.616 11.7867 29.924 12.5987 29.924 13.588ZM24.394 11.348V15.814H26.564C27.1707 15.814 27.67 15.604 28.062 15.184C28.454 14.764 28.65 14.232 28.65 13.588C28.65 12.9347 28.454 12.398 28.062 11.978C27.67 11.558 27.1707 11.348 26.564 11.348H24.394ZM37.1158 16.402C37.1158 16.5793 37.1018 16.822 37.0738 17.13H32.0758C32.0852 17.746 32.2718 18.2313 32.6358 18.586C32.9998 18.9313 33.4898 19.104 34.1058 19.104C34.9645 19.104 35.5338 18.7867 35.8138 18.152H37.0318C36.9198 18.7493 36.5932 19.2347 36.0518 19.608C35.5105 19.9813 34.8618 20.168 34.1058 20.168C33.1165 20.168 32.3278 19.8647 31.7398 19.258C31.1612 18.642 30.8718 17.8113 30.8718 16.766C30.8718 15.7393 31.1612 14.918 31.7398 14.302C32.3185 13.686 33.0885 13.378 34.0498 13.378C34.9645 13.378 35.7018 13.658 36.2618 14.218C36.8312 14.778 37.1158 15.506 37.1158 16.402ZM32.0758 16.192H35.9118C35.9118 15.6227 35.7438 15.1747 35.4078 14.848C35.0812 14.5213 34.6238 14.358 34.0358 14.358C33.4572 14.358 32.9905 14.526 32.6358 14.862C32.2905 15.198 32.1038 15.6413 32.0758 16.192ZM40.8606 20.168C40.0486 20.168 39.3953 19.9673 38.9006 19.566C38.4153 19.1553 38.1726 18.656 38.1726 18.068H39.3766C39.3766 18.3947 39.5166 18.6653 39.7966 18.88C40.0766 19.0853 40.45 19.188 40.9166 19.188C41.2806 19.188 41.57 19.104 41.7846 18.936C41.9993 18.768 42.1066 18.5393 42.1066 18.25C42.1066 17.7927 41.8966 17.5127 41.4766 17.41L39.7546 16.962C38.8306 16.71 38.3686 16.1313 38.3686 15.226C38.3686 14.694 38.5926 14.2553 39.0406 13.91C39.4886 13.5553 40.072 13.378 40.7906 13.378C41.5746 13.378 42.1813 13.56 42.6106 13.924C43.0493 14.2787 43.2686 14.7453 43.2686 15.324H42.0646C42.0646 15.016 41.948 14.7733 41.7146 14.596C41.4813 14.4093 41.1546 14.316 40.7346 14.316C40.3986 14.316 40.1186 14.3953 39.8946 14.554C39.68 14.7033 39.5726 14.9087 39.5726 15.17C39.5726 15.6087 39.8106 15.884 40.2866 15.996L41.8966 16.444C42.354 16.5653 42.7086 16.78 42.9606 17.088C43.2126 17.396 43.3386 17.746 43.3386 18.138C43.3386 18.754 43.1193 19.2487 42.6806 19.622C42.242 19.986 41.6353 20.168 40.8606 20.168ZM47.3734 20.168C46.6267 20.168 46.0294 19.944 45.5814 19.496C45.1427 19.0387 44.9234 18.3807 44.9234 17.522V13.546H46.1414V17.228C46.1414 18.488 46.664 19.118 47.7094 19.118C48.3254 19.118 48.7827 18.922 49.0814 18.53C49.3894 18.1287 49.5434 17.6433 49.5434 17.074V13.546H50.7614V20H49.5434V18.824C49.366 19.2347 49.086 19.5613 48.7034 19.804C48.33 20.0467 47.8867 20.168 47.3734 20.168ZM52.8547 20V13.546H54.0727V14.722C54.2034 14.3393 54.4367 14.022 54.7727 13.77C55.1087 13.5087 55.5194 13.378 56.0047 13.378C57.1154 13.378 57.806 13.84 58.0767 14.764C58.226 14.3627 58.4874 14.0313 58.8607 13.77C59.234 13.5087 59.6634 13.378 60.1487 13.378C61.698 13.378 62.4727 14.2227 62.4727 15.912V20H61.2547V16.15C61.2547 15.002 60.788 14.428 59.8547 14.428C58.8 14.428 58.2727 15.1653 58.2727 16.64V20H57.0547V16.234C57.0547 15.03 56.5927 14.428 55.6687 14.428C55.1647 14.428 54.7727 14.6147 54.4927 14.988C54.2127 15.352 54.0727 15.9027 54.0727 16.64V20H52.8547ZM70.2291 16.402C70.2291 16.5793 70.2151 16.822 70.1871 17.13H65.1891C65.1985 17.746 65.3851 18.2313 65.7491 18.586C66.1131 18.9313 66.6031 19.104 67.2191 19.104C68.0778 19.104 68.6471 18.7867 68.9271 18.152H70.1451C70.0331 18.7493 69.7065 19.2347 69.1651 19.608C68.6238 19.9813 67.9751 20.168 67.2191 20.168C66.2298 20.168 65.4411 19.8647 64.8531 19.258C64.2745 18.642 63.9851 17.8113 63.9851 16.766C63.9851 15.7393 64.2745 14.918 64.8531 14.302C65.4318 13.686 66.2018 13.378 67.1631 13.378C68.0778 13.378 68.8151 13.658 69.3751 14.218C69.9445 14.778 70.2291 15.506 70.2291 16.402ZM65.1891 16.192H69.0251C69.0251 15.6227 68.8571 15.1747 68.5211 14.848C68.1945 14.5213 67.7371 14.358 67.1491 14.358C66.5705 14.358 66.1038 14.526 65.7491 14.862C65.4038 15.198 65.2171 15.6413 65.1891 16.192Z" fill="black"/>
</svg>
