<svg width="97" height="33" viewBox="0 0 97 33" fill="none" xmlns="http://www.w3.org/2000/svg">
<path d="M2.99951 8.62169L8.87448 2.99609H14.7495H26.4994H49.9993H96.999V17.9977V21.7481V25.4985V27.3737L91.1241 32.9993H85.2491H73.4991H49.9993H2.99951V17.9977V10.4969V8.62169Z" fill="black"/>
<path d="M46.9998 0.25H93.7495V15.0016V18.752V22.5024V24.2709L88.0241 29.7532H82.2496H70.4996H46.9998H0.25V15.0016V7.5008V5.73234L5.97536 0.25H11.7499H23.4999H46.9998Z" fill="white" stroke="black" stroke-width="0.5"/>
<path d="M35.298 15.238V16.386H34.22C34.0053 17.5714 33.4967 18.5094 32.694 19.2C31.8913 19.8814 30.846 20.222 29.558 20.222C28.0273 20.222 26.8047 19.7414 25.89 18.78C24.9753 17.8187 24.5227 16.61 24.532 15.154C24.532 13.6887 24.98 12.4614 25.876 11.472C26.7813 10.4734 28.032 9.97405 29.628 9.97405C30.7573 9.97405 31.7093 10.2587 32.484 10.828C33.2587 11.3974 33.7113 12.1207 33.842 12.998H32.442C32.302 12.438 31.98 11.9854 31.476 11.64C30.9813 11.2947 30.3653 11.122 29.628 11.122C28.4147 11.122 27.4813 11.5 26.828 12.256C26.184 13.012 25.862 13.978 25.862 15.154C25.862 16.274 26.1933 17.2074 26.856 17.954C27.528 18.7007 28.4287 19.074 29.558 19.074C30.4727 19.074 31.21 18.8454 31.77 18.388C32.3393 17.9214 32.7127 17.254 32.89 16.386H30.51V15.238H35.298ZM39.3314 20.166C38.3328 20.166 37.5488 19.8487 36.9794 19.214C36.4194 18.5794 36.1394 17.7674 36.1394 16.778C36.1394 15.798 36.4288 14.986 37.0074 14.342C37.5954 13.698 38.3794 13.376 39.3594 13.376C39.8634 13.376 40.3161 13.4927 40.7174 13.726C41.1188 13.9594 41.4221 14.2767 41.6274 14.678V13.544H42.8314V19.998H41.6274V18.864C41.4221 19.256 41.1094 19.5734 40.6894 19.816C40.2694 20.0494 39.8168 20.166 39.3314 20.166ZM39.4994 19.074C40.1808 19.074 40.7128 18.8547 41.0954 18.416C41.4874 17.968 41.6834 17.422 41.6834 16.778C41.6834 16.1247 41.4874 15.5787 41.0954 15.14C40.7128 14.692 40.1808 14.468 39.4994 14.468C38.8461 14.468 38.3234 14.6874 37.9314 15.126C37.5394 15.5554 37.3434 16.106 37.3434 16.778C37.3434 17.45 37.5394 18.0007 37.9314 18.43C38.3234 18.8594 38.8461 19.074 39.4994 19.074ZM44.9289 19.998V10.198H46.1469V19.998H44.9289ZM48.2512 19.998V10.198H49.4692V19.998H48.2512ZM57.2994 16.4C57.2994 16.5774 57.2854 16.82 57.2574 17.128H52.2594C52.2688 17.744 52.4554 18.2294 52.8194 18.584C53.1834 18.9294 53.6734 19.102 54.2894 19.102C55.1481 19.102 55.7174 18.7847 55.9974 18.15H57.2154C57.1034 18.7474 56.7768 19.2327 56.2354 19.606C55.6941 19.9794 55.0454 20.166 54.2894 20.166C53.3001 20.166 52.5114 19.8627 51.9234 19.256C51.3448 18.64 51.0554 17.8094 51.0554 16.764C51.0554 15.7374 51.3448 14.916 51.9234 14.3C52.5021 13.684 53.2721 13.376 54.2334 13.376C55.1481 13.376 55.8854 13.656 56.4454 14.216C57.0148 14.776 57.2994 15.504 57.2994 16.4ZM52.2594 16.19H56.0954C56.0954 15.6207 55.9274 15.1727 55.5914 14.846C55.2648 14.5194 54.8074 14.356 54.2194 14.356C53.6408 14.356 53.1741 14.524 52.8194 14.86C52.4741 15.196 52.2874 15.6394 52.2594 16.19ZM58.8742 19.998V13.544H60.0922V15.014C60.2136 14.5007 60.4516 14.1134 60.8062 13.852C61.1609 13.5814 61.5529 13.446 61.9822 13.446C62.2342 13.446 62.4302 13.4647 62.5702 13.502V14.622C62.4302 14.594 62.2296 14.58 61.9682 14.58C61.3616 14.58 60.8949 14.8227 60.5682 15.308C60.2509 15.7934 60.0922 16.414 60.0922 17.17V19.998H58.8742ZM68.5528 13.544H69.7708V20.124C69.7708 21.1414 69.4768 21.916 68.8888 22.448C68.3661 22.9147 67.6615 23.148 66.7748 23.148C65.8415 23.148 65.1135 22.924 64.5908 22.476C64.1148 22.0747 63.8721 21.5194 63.8628 20.81H65.0948C65.1415 21.6874 65.6968 22.126 66.7608 22.126C67.9555 22.126 68.5528 21.4307 68.5528 20.04V18.836C68.1235 19.7227 67.3768 20.166 66.3128 20.166C65.5008 20.166 64.8895 19.9187 64.4788 19.424C64.0681 18.92 63.8628 18.2434 63.8628 17.394V13.544H65.0808V17.142C65.0808 17.7674 65.2021 18.248 65.4448 18.584C65.6968 18.9107 66.1215 19.074 66.7188 19.074C67.3068 19.074 67.7595 18.864 68.0768 18.444C68.3941 18.0147 68.5528 17.4874 68.5528 16.862V13.544Z" fill="black"/>
</svg>