<svg width="97" height="33" viewBox="0 0 97 33" fill="none" xmlns="http://www.w3.org/2000/svg">
<path d="M2.99902 8.62169L8.87399 2.99609H14.749H26.4989H49.9988H96.9985V17.9977V21.7481V25.4985V27.3737L91.1236 32.9993H85.2486H73.4987H49.9988H2.99902V17.9977V10.4969V8.62169Z" fill="black"/>
<path d="M0.249512 7.5008V5.73234L5.97487 0.25H11.7495H23.4994H46.9993H93.749V15.0016V18.752V22.5024V24.2709L88.0237 29.7532H82.2491H70.4991H46.9993H0.249512V15.0016V7.5008Z" fill="#C27CF2" stroke="black" stroke-width="0.5"/>
<path d="M34.7975 15.238V16.386H33.7195C33.5048 17.5714 32.9962 18.5094 32.1935 19.2C31.3908 19.8814 30.3455 20.222 29.0575 20.222C27.5268 20.222 26.3042 19.7414 25.3895 18.78C24.4748 17.8187 24.0222 16.61 24.0315 15.154C24.0315 13.6887 24.4795 12.4614 25.3755 11.472C26.2808 10.4734 27.5315 9.97405 29.1275 9.97405C30.2568 9.97405 31.2088 10.2587 31.9835 10.828C32.7582 11.3974 33.2108 12.1207 33.3415 12.998H31.9415C31.8015 12.438 31.4795 11.9854 30.9755 11.64C30.4808 11.2947 29.8648 11.122 29.1275 11.122C27.9142 11.122 26.9808 11.5 26.3275 12.256C25.6835 13.012 25.3615 13.978 25.3615 15.154C25.3615 16.274 25.6928 17.2074 26.3555 17.954C27.0275 18.7007 27.9282 19.074 29.0575 19.074C29.9722 19.074 30.7095 18.8454 31.2695 18.388C31.8388 17.9214 32.2122 17.254 32.3895 16.386H30.0095V15.238H34.7975ZM38.8309 20.166C37.8323 20.166 37.0483 19.8487 36.4789 19.214C35.9189 18.5794 35.6389 17.7674 35.6389 16.778C35.6389 15.798 35.9283 14.986 36.5069 14.342C37.0949 13.698 37.8789 13.376 38.8589 13.376C39.3629 13.376 39.8156 13.4927 40.2169 13.726C40.6183 13.9594 40.9216 14.2767 41.1269 14.678V13.544H42.3309V19.998H41.1269V18.864C40.9216 19.256 40.6089 19.5734 40.1889 19.816C39.7689 20.0494 39.3163 20.166 38.8309 20.166ZM38.9989 19.074C39.6803 19.074 40.2123 18.8547 40.5949 18.416C40.9869 17.968 41.1829 17.422 41.1829 16.778C41.1829 16.1247 40.9869 15.5787 40.5949 15.14C40.2123 14.692 39.6803 14.468 38.9989 14.468C38.3456 14.468 37.8229 14.6874 37.4309 15.126C37.0389 15.5554 36.8429 16.106 36.8429 16.778C36.8429 17.45 37.0389 18.0007 37.4309 18.43C37.8229 18.8594 38.3456 19.074 38.9989 19.074ZM44.4284 19.998V10.198H45.6464V19.998H44.4284ZM47.7507 19.998V10.198H48.9687V19.998H47.7507ZM56.7989 16.4C56.7989 16.5774 56.7849 16.82 56.7569 17.128H51.7589C51.7683 17.744 51.9549 18.2294 52.3189 18.584C52.6829 18.9294 53.1729 19.102 53.7889 19.102C54.6476 19.102 55.2169 18.7847 55.4969 18.15H56.7149C56.6029 18.7474 56.2763 19.2327 55.7349 19.606C55.1936 19.9794 54.5449 20.166 53.7889 20.166C52.7996 20.166 52.0109 19.8627 51.4229 19.256C50.8443 18.64 50.5549 17.8094 50.5549 16.764C50.5549 15.7374 50.8443 14.916 51.4229 14.3C52.0016 13.684 52.7716 13.376 53.7329 13.376C54.6476 13.376 55.3849 13.656 55.9449 14.216C56.5143 14.776 56.7989 15.504 56.7989 16.4ZM51.7589 16.19H55.5949C55.5949 15.6207 55.4269 15.1727 55.0909 14.846C54.7643 14.5194 54.3069 14.356 53.7189 14.356C53.1403 14.356 52.6736 14.524 52.3189 14.86C51.9736 15.196 51.7869 15.6394 51.7589 16.19ZM58.3737 19.998V13.544H59.5917V15.014C59.7131 14.5007 59.9511 14.1134 60.3057 13.852C60.6604 13.5814 61.0524 13.446 61.4817 13.446C61.7337 13.446 61.9297 13.4647 62.0697 13.502V14.622C61.9297 14.594 61.7291 14.58 61.4677 14.58C60.8611 14.58 60.3944 14.8227 60.0677 15.308C59.7504 15.7934 59.5917 16.414 59.5917 17.17V19.998H58.3737ZM68.0523 13.544H69.2703V20.124C69.2703 21.1414 68.9763 21.916 68.3883 22.448C67.8657 22.9147 67.161 23.148 66.2743 23.148C65.341 23.148 64.613 22.924 64.0903 22.476C63.6143 22.0747 63.3717 21.5194 63.3623 20.81H64.5943C64.641 21.6874 65.1963 22.126 66.2603 22.126C67.455 22.126 68.0523 21.4307 68.0523 20.04V18.836C67.623 19.7227 66.8763 20.166 65.8123 20.166C65.0003 20.166 64.389 19.9187 63.9783 19.424C63.5677 18.92 63.3623 18.2434 63.3623 17.394V13.544H64.5803V17.142C64.5803 17.7674 64.7017 18.248 64.9443 18.584C65.1963 18.9107 65.621 19.074 66.2183 19.074C66.8063 19.074 67.259 18.864 67.5763 18.444C67.8937 18.0147 68.0523 17.4874 68.0523 16.862V13.544Z" fill="black"/>
</svg>