<svg width="13" height="12" viewBox="0 0 13 12" fill="none" xmlns="http://www.w3.org/2000/svg">
<path d="M0.41887 10.2929C0.0283455 10.6834 0.0283455 11.3166 0.41887 11.7071C0.809394 12.0976 1.44256 12.0976 1.83308 11.7071L0.41887 10.2929ZM12.126 1C12.126 0.447715 11.6783 -8.71014e-08 11.126 3.34367e-07L2.12598 4.60808e-07C1.57369 1.23633e-07 1.12598 0.447715 1.12598 1C1.12598 1.55229 1.57369 2 2.12598 2L10.126 2L10.126 10C10.126 10.5523 10.5737 11 11.126 11C11.6783 11 12.126 10.5523 12.126 10L12.126 1ZM1.83308 11.7071L11.8331 1.70711L10.4189 0.292893L0.41887 10.2929L1.83308 11.7071Z" fill="white"/>
</svg>