<svg width="97" height="33" viewBox="0 0 97 33" fill="none" xmlns="http://www.w3.org/2000/svg">
<path d="M3 8.6256L8.87497 3H14.7499H26.4999H49.9998H96.9995V18.0016V21.752V25.5024V27.3776L91.1245 33.0032H85.2496H73.4996H49.9998H3V18.0016V10.5008V8.6256Z" fill="black"/>
<path d="M47.0002 0.253906H93.75V15.0055V18.7559V22.5063V24.2748L88.0246 29.7571H82.2501H70.5001H47.0002H0.250488V15.0055V7.50471V5.73625L5.97585 0.253906H11.7504H23.5004H47.0002Z" fill="#97C93A" stroke="black" stroke-width="0.5"/>
<path d="M26.634 10.202C27.5953 10.202 28.384 10.5193 29 11.154C29.616 11.7886 29.924 12.6006 29.924 13.59C29.924 14.57 29.616 15.3773 29 16.012C28.384 16.6466 27.5953 16.964 26.634 16.964H24.394V20.002H23.12V10.202H26.634ZM26.564 15.816C27.1707 15.816 27.67 15.606 28.062 15.186C28.454 14.766 28.65 14.234 28.65 13.59C28.65 12.9366 28.454 12.4 28.062 11.98C27.67 11.56 27.1707 11.35 26.564 11.35H24.394V15.816H26.564ZM31.1711 20.002V13.548H32.3891V15.018C32.5104 14.5046 32.7484 14.1173 33.1031 13.856C33.4578 13.5853 33.8498 13.45 34.2791 13.45C34.5311 13.45 34.7271 13.4686 34.8671 13.506V14.626C34.7271 14.598 34.5264 14.584 34.2651 14.584C33.6584 14.584 33.1918 14.8266 32.8651 15.312C32.5478 15.7973 32.3891 16.418 32.3891 17.174V20.002H31.1711ZM38.8803 20.17C37.8536 20.17 37.0369 19.848 36.4303 19.204C35.8236 18.5506 35.5203 17.7386 35.5203 16.768C35.5203 15.7973 35.8236 14.99 36.4303 14.346C37.0369 13.702 37.8536 13.38 38.8803 13.38C39.8976 13.38 40.7096 13.7066 41.3163 14.36C41.9323 15.004 42.2403 15.8066 42.2403 16.768C42.2403 17.7386 41.9323 18.5506 41.3163 19.204C40.7096 19.848 39.8976 20.17 38.8803 20.17ZM37.2983 18.434C37.6903 18.8633 38.2176 19.078 38.8803 19.078C39.5429 19.078 40.0656 18.8633 40.4483 18.434C40.8309 17.9953 41.0223 17.44 41.0223 16.768C41.0223 16.1053 40.8309 15.5593 40.4483 15.13C40.0656 14.6913 39.5429 14.472 38.8803 14.472C38.2176 14.472 37.6903 14.6913 37.2983 15.13C36.9156 15.5593 36.7243 16.11 36.7243 16.782C36.7243 17.4446 36.9156 17.9953 37.2983 18.434ZM44.3662 12.442C44.0769 12.442 43.8389 12.3486 43.6522 12.162C43.4655 11.9753 43.3722 11.742 43.3722 11.462C43.3722 11.182 43.4655 10.9486 43.6522 10.762C43.8389 10.566 44.0769 10.468 44.3662 10.468C44.6462 10.468 44.8795 10.566 45.0662 10.762C45.2529 10.9486 45.3462 11.182 45.3462 11.462C45.3462 11.742 45.2529 11.9753 45.0662 12.162C44.8795 12.3486 44.6462 12.442 44.3662 12.442ZM43.2742 23.068C42.8729 23.068 42.5742 23.0166 42.3782 22.914V21.808C42.5555 21.8733 42.7749 21.906 43.0362 21.906C43.5122 21.906 43.7502 21.6166 43.7502 21.038V13.548H44.9682V21.374C44.9682 21.9153 44.8189 22.3306 44.5202 22.62C44.2309 22.9186 43.8155 23.068 43.2742 23.068ZM52.7975 16.404C52.7975 16.5813 52.7835 16.824 52.7555 17.132H47.7575C47.7668 17.748 47.9535 18.2333 48.3175 18.588C48.6815 18.9333 49.1715 19.106 49.7875 19.106C50.6462 19.106 51.2155 18.7886 51.4955 18.154H52.7135C52.6015 18.7513 52.2748 19.2366 51.7335 19.61C51.1922 19.9833 50.5435 20.17 49.7875 20.17C48.7982 20.17 48.0095 19.8666 47.4215 19.26C46.8428 18.644 46.5535 17.8133 46.5535 16.768C46.5535 15.7413 46.8428 14.92 47.4215 14.304C48.0002 13.688 48.7702 13.38 49.7315 13.38C50.6462 13.38 51.3835 13.66 51.9435 14.22C52.5128 14.78 52.7975 15.508 52.7975 16.404ZM47.7575 16.194H51.5935C51.5935 15.6246 51.4255 15.1766 51.0895 14.85C50.7628 14.5233 50.3055 14.36 49.7175 14.36C49.1388 14.36 48.6722 14.528 48.3175 14.864C47.9722 15.2 47.7855 15.6433 47.7575 16.194ZM57.1423 20.17C56.1623 20.17 55.383 19.862 54.8043 19.246C54.2256 18.6206 53.9363 17.7993 53.9363 16.782C53.9363 15.7646 54.2256 14.948 54.8043 14.332C55.383 13.7066 56.1623 13.394 57.1423 13.394C58.0103 13.394 58.7103 13.6133 59.2423 14.052C59.7743 14.4813 60.0776 15.06 60.1523 15.788H58.9343C58.7663 14.92 58.169 14.486 57.1423 14.486C56.517 14.486 56.027 14.6913 55.6723 15.102C55.3176 15.5033 55.1403 16.0633 55.1403 16.782C55.1403 17.5006 55.3176 18.0653 55.6723 18.476C56.027 18.8773 56.517 19.078 57.1423 19.078C58.1596 19.078 58.757 18.658 58.9343 17.818H60.1523C60.0776 18.5366 59.7743 19.1106 59.2423 19.54C58.7103 19.96 58.0103 20.17 57.1423 20.17ZM64.375 18.98C64.711 18.98 64.9817 18.9566 65.187 18.91V19.988C64.907 20.0533 64.5477 20.086 64.109 20.086C63.913 20.086 63.7404 20.0766 63.591 20.058C63.451 20.0393 63.283 19.988 63.087 19.904C62.891 19.82 62.7277 19.7033 62.597 19.554C62.4664 19.3953 62.3544 19.176 62.261 18.896C62.1677 18.6066 62.121 18.2613 62.121 17.86V14.57H60.959V13.548H62.121V11.504H63.339V13.548H64.963V14.57H63.339V17.594C63.339 18.1633 63.423 18.5366 63.591 18.714C63.759 18.8913 64.0204 18.98 64.375 18.98ZM68.7513 20.17C67.9393 20.17 67.2859 19.9693 66.7913 19.568C66.3059 19.1573 66.0633 18.658 66.0633 18.07H67.2673C67.2673 18.3966 67.4073 18.6673 67.6873 18.882C67.9673 19.0873 68.3406 19.19 68.8073 19.19C69.1713 19.19 69.4606 19.106 69.6753 18.938C69.8899 18.77 69.9973 18.5413 69.9973 18.252C69.9973 17.7946 69.7873 17.5146 69.3673 17.412L67.6453 16.964C66.7213 16.712 66.2593 16.1333 66.2593 15.228C66.2593 14.696 66.4833 14.2573 66.9313 13.912C67.3793 13.5573 67.9626 13.38 68.6813 13.38C69.4653 13.38 70.0719 13.562 70.5013 13.926C70.9399 14.2806 71.1593 14.7473 71.1593 15.326H69.9553C69.9553 15.018 69.8386 14.7753 69.6053 14.598C69.3719 14.4113 69.0453 14.318 68.6253 14.318C68.2893 14.318 68.0093 14.3973 67.7853 14.556C67.5706 14.7053 67.4633 14.9106 67.4633 15.172C67.4633 15.6106 67.7013 15.886 68.1773 15.998L69.7873 16.446C70.2446 16.5673 70.5993 16.782 70.8513 17.09C71.1033 17.398 71.2293 17.748 71.2293 18.14C71.2293 18.756 71.0099 19.2506 70.5713 19.624C70.1326 19.988 69.5259 20.17 68.7513 20.17Z" fill="black"/>
</svg>