<svg width="97" height="33" viewBox="0 0 97 33" fill="none" xmlns="http://www.w3.org/2000/svg">
<path d="M3 8.62169L8.87497 2.99609H14.7499H26.4999H49.9998H96.9995V17.9977V21.7481V25.4985V27.3737L91.1245 32.9993H85.2496H73.4996H49.9998H3V17.9977V10.4969V8.62169Z" fill="black"/>
<path d="M47.0002 0.25H93.75V15.0016V18.752V22.5024V24.2709L88.0246 29.7532H82.2501H70.5001H47.0002H0.250488V15.0016V7.5008V5.73234L5.97585 0.25H11.7504H23.5004H47.0002Z" fill="white" stroke="black" stroke-width="0.5"/>
<path d="M26.634 10.198C27.5953 10.198 28.384 10.5154 29 11.15C29.616 11.7847 29.924 12.5967 29.924 13.586C29.924 14.566 29.616 15.3734 29 16.008C28.384 16.6427 27.5953 16.96 26.634 16.96H24.394V19.998H23.12V10.198H26.634ZM26.564 15.812C27.1707 15.812 27.67 15.602 28.062 15.182C28.454 14.762 28.65 14.23 28.65 13.586C28.65 12.9327 28.454 12.396 28.062 11.976C27.67 11.556 27.1707 11.346 26.564 11.346H24.394V15.812H26.564ZM31.1711 19.998V13.544H32.3891V15.014C32.5104 14.5007 32.7484 14.1134 33.1031 13.852C33.4578 13.5814 33.8498 13.446 34.2791 13.446C34.5311 13.446 34.7271 13.4647 34.8671 13.502V14.622C34.7271 14.594 34.5264 14.58 34.2651 14.58C33.6584 14.58 33.1918 14.8227 32.8651 15.308C32.5478 15.7934 32.3891 16.414 32.3891 17.17V19.998H31.1711ZM38.8803 20.166C37.8536 20.166 37.0369 19.844 36.4303 19.2C35.8236 18.5467 35.5203 17.7347 35.5203 16.764C35.5203 15.7934 35.8236 14.986 36.4303 14.342C37.0369 13.698 37.8536 13.376 38.8803 13.376C39.8976 13.376 40.7096 13.7027 41.3163 14.356C41.9323 15 42.2403 15.8027 42.2403 16.764C42.2403 17.7347 41.9323 18.5467 41.3163 19.2C40.7096 19.844 39.8976 20.166 38.8803 20.166ZM37.2983 18.43C37.6903 18.8594 38.2176 19.074 38.8803 19.074C39.5429 19.074 40.0656 18.8594 40.4483 18.43C40.8309 17.9914 41.0223 17.436 41.0223 16.764C41.0223 16.1014 40.8309 15.5554 40.4483 15.126C40.0656 14.6874 39.5429 14.468 38.8803 14.468C38.2176 14.468 37.6903 14.6874 37.2983 15.126C36.9156 15.5554 36.7243 16.106 36.7243 16.778C36.7243 17.4407 36.9156 17.9914 37.2983 18.43ZM44.3662 12.438C44.0769 12.438 43.8389 12.3447 43.6522 12.158C43.4655 11.9714 43.3722 11.738 43.3722 11.458C43.3722 11.178 43.4655 10.9447 43.6522 10.758C43.8389 10.562 44.0769 10.464 44.3662 10.464C44.6462 10.464 44.8795 10.562 45.0662 10.758C45.2529 10.9447 45.3462 11.178 45.3462 11.458C45.3462 11.738 45.2529 11.9714 45.0662 12.158C44.8795 12.3447 44.6462 12.438 44.3662 12.438ZM43.2742 23.064C42.8729 23.064 42.5742 23.0127 42.3782 22.91V21.804C42.5555 21.8694 42.7749 21.902 43.0362 21.902C43.5122 21.902 43.7502 21.6127 43.7502 21.034V13.544H44.9682V21.37C44.9682 21.9114 44.8189 22.3267 44.5202 22.616C44.2309 22.9147 43.8155 23.064 43.2742 23.064ZM52.7975 16.4C52.7975 16.5774 52.7835 16.82 52.7555 17.128H47.7575C47.7668 17.744 47.9535 18.2294 48.3175 18.584C48.6815 18.9294 49.1715 19.102 49.7875 19.102C50.6462 19.102 51.2155 18.7847 51.4955 18.15H52.7135C52.6015 18.7474 52.2748 19.2327 51.7335 19.606C51.1922 19.9794 50.5435 20.166 49.7875 20.166C48.7982 20.166 48.0095 19.8627 47.4215 19.256C46.8428 18.64 46.5535 17.8094 46.5535 16.764C46.5535 15.7374 46.8428 14.916 47.4215 14.3C48.0002 13.684 48.7702 13.376 49.7315 13.376C50.6462 13.376 51.3835 13.656 51.9435 14.216C52.5128 14.776 52.7975 15.504 52.7975 16.4ZM47.7575 16.19H51.5935C51.5935 15.6207 51.4255 15.1727 51.0895 14.846C50.7628 14.5194 50.3055 14.356 49.7175 14.356C49.1388 14.356 48.6722 14.524 48.3175 14.86C47.9722 15.196 47.7855 15.6394 47.7575 16.19ZM57.1423 20.166C56.1623 20.166 55.383 19.858 54.8043 19.242C54.2256 18.6167 53.9363 17.7954 53.9363 16.778C53.9363 15.7607 54.2256 14.944 54.8043 14.328C55.383 13.7027 56.1623 13.39 57.1423 13.39C58.0103 13.39 58.7103 13.6094 59.2423 14.048C59.7743 14.4774 60.0776 15.056 60.1523 15.784H58.9343C58.7663 14.916 58.169 14.482 57.1423 14.482C56.517 14.482 56.027 14.6874 55.6723 15.098C55.3176 15.4994 55.1403 16.0594 55.1403 16.778C55.1403 17.4967 55.3176 18.0614 55.6723 18.472C56.027 18.8734 56.517 19.074 57.1423 19.074C58.1596 19.074 58.757 18.654 58.9343 17.814H60.1523C60.0776 18.5327 59.7743 19.1067 59.2423 19.536C58.7103 19.956 58.0103 20.166 57.1423 20.166ZM64.375 18.976C64.711 18.976 64.9817 18.9527 65.187 18.906V19.984C64.907 20.0494 64.5477 20.082 64.109 20.082C63.913 20.082 63.7404 20.0727 63.591 20.054C63.451 20.0354 63.283 19.984 63.087 19.9C62.891 19.816 62.7277 19.6994 62.597 19.55C62.4664 19.3914 62.3544 19.172 62.261 18.892C62.1677 18.6027 62.121 18.2574 62.121 17.856V14.566H60.959V13.544H62.121V11.5H63.339V13.544H64.963V14.566H63.339V17.59C63.339 18.1594 63.423 18.5327 63.591 18.71C63.759 18.8874 64.0204 18.976 64.375 18.976ZM68.7513 20.166C67.9393 20.166 67.2859 19.9654 66.7913 19.564C66.3059 19.1534 66.0633 18.654 66.0633 18.066H67.2673C67.2673 18.3927 67.4073 18.6634 67.6873 18.878C67.9673 19.0834 68.3406 19.186 68.8073 19.186C69.1713 19.186 69.4606 19.102 69.6753 18.934C69.8899 18.766 69.9973 18.5374 69.9973 18.248C69.9973 17.7907 69.7873 17.5107 69.3673 17.408L67.6453 16.96C66.7213 16.708 66.2593 16.1294 66.2593 15.224C66.2593 14.692 66.4833 14.2534 66.9313 13.908C67.3793 13.5534 67.9626 13.376 68.6813 13.376C69.4653 13.376 70.0719 13.558 70.5013 13.922C70.9399 14.2767 71.1593 14.7434 71.1593 15.322H69.9553C69.9553 15.014 69.8386 14.7714 69.6053 14.594C69.3719 14.4074 69.0453 14.314 68.6253 14.314C68.2893 14.314 68.0093 14.3934 67.7853 14.552C67.5706 14.7014 67.4633 14.9067 67.4633 15.168C67.4633 15.6067 67.7013 15.882 68.1773 15.994L69.7873 16.442C70.2446 16.5634 70.5993 16.778 70.8513 17.086C71.1033 17.394 71.2293 17.744 71.2293 18.136C71.2293 18.752 71.0099 19.2467 70.5713 19.62C70.1326 19.984 69.5259 20.166 68.7513 20.166Z" fill="black"/>
</svg>