<svg width="47" height="37" viewBox="0 0 47 37" fill="none" xmlns="http://www.w3.org/2000/svg">
<path d="M8.72933 36.6799C5.83581 36.6799 3.46313 35.4068 1.61127 32.8605C0.685349 31.2401 0.222386 29.1568 0.222386 26.6105C0.222386 19.5503 4.38905 12.2007 12.7224 4.56184C15.0372 2.59425 16.5997 1.37897 17.4099 0.916009C18.1043 1.95768 19.2617 3.46231 20.8821 5.4299C14.9793 10.8697 12.0279 15.7308 12.0279 20.0132C14.1113 20.8234 15.6159 22.2123 16.5418 24.1799C17.2363 25.3373 17.5835 26.6105 17.5835 27.9993C17.5835 30.8929 16.2525 33.3234 13.5904 35.291C12.2016 36.2169 10.5812 36.6799 8.72933 36.6799ZM33.9029 36.6799C31.0094 36.6799 28.6367 35.4068 26.7849 32.8605C25.7432 31.2401 25.2224 29.1568 25.2224 26.6105C25.2224 19.5503 29.4469 12.2007 37.896 4.56184C40.2108 2.59425 41.7733 1.37897 42.5835 0.916009C43.2779 1.95768 44.4354 3.46231 46.0557 5.4299C40.1529 10.8697 37.2016 15.7308 37.2016 20.0132C39.2849 20.8234 40.7895 22.2123 41.7154 24.1799C42.4099 25.3373 42.7571 26.6105 42.7571 27.9993C42.7571 30.8929 41.484 33.3234 38.9377 35.291C37.433 36.2169 35.7548 36.6799 33.9029 36.6799Z" fill="white"/>
</svg>